<svg width="17" height="14" viewBox="0 0 22 18" fill="none" xmlns="http://www.w3.org/2000/svg">
<path d="M21.2484 9.62377L13.3734 17.4988C13.2062 17.6605 12.9826 17.7509 12.75 17.7509C12.5174 17.7509 12.2938 17.6605 12.1266 17.4988C11.9623 17.3329 11.8701 17.1088 11.8701 16.8753C11.8701 16.6418 11.9623 16.4178 12.1266 16.2519L18.5141 9.87533H1.375C1.14294 9.87533 0.920376 9.78315 0.756282 9.61905C0.592187 9.45496 0.5 9.2324 0.5 9.00033C0.5 8.76827 0.592187 8.54571 0.756282 8.38161C0.920376 8.21752 1.14294 8.12533 1.375 8.12533H18.5141L12.1266 1.74877C11.987 1.57876 11.9157 1.36293 11.9265 1.14326C11.9373 0.923589 12.0294 0.715785 12.1849 0.560267C12.3405 0.404749 12.5483 0.312637 12.7679 0.301849C12.9876 0.29106 13.2034 0.362365 13.3734 0.501895L21.2484 8.3769C21.4127 8.54279 21.5049 8.76684 21.5049 9.00033C21.5049 9.23382 21.4127 9.45788 21.2484 9.62377Z" fill="#FFB300"/>
</svg>
