<svg width="36" height="36" viewBox="0 0 50 36" fill="none" xmlns="http://www.w3.org/2000/svg">
<path d="M12.5001 19.3437C12.5027 19.5497 12.4641 19.754 12.3865 19.9448C12.3089 20.1355 12.1939 20.3088 12.0483 20.4544C11.9026 20.6001 11.7294 20.7151 11.5386 20.7926C11.3478 20.8702 11.1435 20.9089 10.9376 20.9062H2.34381C2.05354 20.9039 1.76936 20.8227 1.52167 20.6713C1.27397 20.5199 1.07207 20.3041 0.937562 20.0469C0.812479 19.7849 0.760943 19.4939 0.788465 19.2049C0.815987 18.9159 0.921531 18.6399 1.09381 18.4062C2.4766 16.5501 4.32177 15.0887 6.44537 14.168C5.53286 13.3327 4.83176 12.2926 4.39977 11.1334C3.96778 9.97415 3.81725 8.72891 3.96058 7.50015C4.1039 6.27138 4.53698 5.09421 5.22417 4.06553C5.91136 3.03686 6.83302 2.18607 7.91328 1.58321C8.99355 0.980351 10.2015 0.642645 11.4378 0.597889C12.6741 0.553132 13.9034 0.802605 15.0244 1.32578C16.1454 1.84895 17.1262 2.63085 17.8859 3.60715C18.6457 4.58344 19.1628 5.72621 19.3946 6.9414C19.4524 7.25789 19.4123 7.58448 19.2797 7.87761C19.1471 8.17073 18.9283 8.41646 18.6524 8.58202C16.1263 10.08 14.205 12.4159 13.2227 15.1836C12.7385 16.5169 12.4938 17.9253 12.5001 19.3437ZM48.9063 18.4062C47.5235 16.5501 45.6784 15.0887 43.5547 14.168C44.4673 13.3327 45.1684 12.2926 45.6004 11.1334C46.0323 9.97415 46.1829 8.72891 46.0395 7.50015C45.8962 6.27138 45.4631 5.09421 44.776 4.06553C44.0888 3.03686 43.1671 2.18607 42.0868 1.58321C41.0066 0.980351 39.7986 0.642645 38.5623 0.597889C37.326 0.553132 36.0968 0.802605 34.9757 1.32578C33.8547 1.84895 32.874 2.63085 32.1142 3.60715C31.3544 4.58344 30.8373 5.72621 30.6055 6.9414C30.5477 7.25789 30.5878 7.58448 30.7204 7.87761C30.853 8.17073 31.0719 8.41646 31.3477 8.58202C33.8771 10.0761 35.7995 12.4134 36.7774 15.1836C37.2617 16.5169 37.5063 17.9253 37.5001 19.3437C37.4974 19.5497 37.5361 19.754 37.6137 19.9448C37.6912 20.1355 37.8062 20.3088 37.9519 20.4544C38.0975 20.6001 38.2708 20.7151 38.4615 20.7926C38.6523 20.8702 38.8566 20.9089 39.0626 20.9062H47.6563C47.9465 20.9062 48.2309 20.8254 48.4778 20.6729C48.7246 20.5203 48.9241 20.3021 49.0539 20.0425C49.1836 19.783 49.2386 19.4924 49.2125 19.2034C49.1864 18.9144 49.0804 18.6384 48.9063 18.4062ZM30.7032 26.7851C32.2582 25.5933 33.4008 23.9441 33.9703 22.0694C34.5398 20.1948 34.5076 18.1888 33.8783 16.3333C33.2491 14.4778 32.0543 12.8661 30.4618 11.7247C28.8694 10.5832 26.9593 9.96938 25.0001 9.96938C23.0408 9.96938 21.1307 10.5832 19.5383 11.7247C17.9459 12.8661 16.7511 14.4778 16.1218 16.3333C15.4925 18.1888 15.4603 20.1948 16.0298 22.0694C16.5994 23.9441 17.7419 25.5933 19.2969 26.7851C16.2589 28.1339 13.7959 30.5139 12.3438 33.5039C12.2283 33.7415 12.1765 34.0051 12.1936 34.2688C12.2108 34.5324 12.2962 34.7871 12.4415 35.0078C12.5767 35.2342 12.7684 35.4216 12.9978 35.5517C13.2271 35.6818 13.4864 35.7501 13.7501 35.75H36.2501C36.5138 35.7501 36.773 35.6818 37.0024 35.5517C37.2317 35.4216 37.4234 35.2342 37.5587 35.0078C37.704 34.7871 37.7894 34.5324 37.8065 34.2688C37.8236 34.0051 37.7719 33.7415 37.6563 33.5039C36.2042 30.5139 33.7412 28.1339 30.7032 26.7851Z" fill="#1E2229"/>
</svg>
