<svg width="22" height="22" viewBox="0 0 22 22" fill="none" xmlns="http://www.w3.org/2000/svg">
<path d="M5.78281 9.65469C5.66389 9.53057 5.58314 9.3749 5.55018 9.2062C5.51721 9.0375 5.53342 8.86288 5.59687 8.70312C5.66212 8.54183 5.77398 8.40364 5.91815 8.30623C6.06232 8.20882 6.23226 8.1566 6.40625 8.15625H10.125V1.375C10.125 1.14294 10.2172 0.920376 10.3813 0.756282C10.5454 0.592187 10.7679 0.5 11 0.5C11.2321 0.5 11.4546 0.592187 11.6187 0.756282C11.7828 0.920376 11.875 1.14294 11.875 1.375V8.15625H15.5938C15.7677 8.1566 15.9377 8.20882 16.0819 8.30623C16.226 8.40364 16.3379 8.54183 16.4031 8.70312C16.4666 8.86288 16.4828 9.0375 16.4498 9.2062C16.4169 9.3749 16.3361 9.53057 16.2172 9.65469L11.6234 14.2484C11.4562 14.4102 11.2326 14.5006 11 14.5006C10.7674 14.5006 10.5438 14.4102 10.3766 14.2484L5.78281 9.65469ZM20.625 12.75C20.3929 12.75 20.1704 12.8422 20.0063 13.0063C19.8422 13.1704 19.75 13.3929 19.75 13.625V19.75H2.25V13.625C2.25 13.3929 2.15781 13.1704 1.99372 13.0063C1.82962 12.8422 1.60706 12.75 1.375 12.75C1.14294 12.75 0.920376 12.8422 0.756282 13.0063C0.592187 13.1704 0.5 13.3929 0.5 13.625V19.75C0.5 20.2141 0.684374 20.6592 1.01256 20.9874C1.34075 21.3156 1.78587 21.5 2.25 21.5H19.75C20.2141 21.5 20.6592 21.3156 20.9874 20.9874C21.3156 20.6592 21.5 20.2141 21.5 19.75V13.625C21.5 13.3929 21.4078 13.1704 21.2437 13.0063C21.0796 12.8422 20.8571 12.75 20.625 12.75Z" fill="#FFB300"/>
</svg>
