<svg width="38" height="45" viewBox="0 0 38 45" fill="none" xmlns="http://www.w3.org/2000/svg">
<path d="M23.6876 42.7497C23.6876 43.1641 23.523 43.5616 23.2299 43.8546C22.9369 44.1476 22.5395 44.3122 22.1251 44.3122H15.8751C15.4607 44.3122 15.0633 44.1476 14.7702 43.8546C14.4772 43.5616 14.3126 43.1641 14.3126 42.7497C14.3126 42.3353 14.4772 41.9379 14.7702 41.6449C15.0633 41.3518 15.4607 41.1872 15.8751 41.1872H22.1251C22.5395 41.1872 22.9369 41.3518 23.2299 41.6449C23.523 41.9379 23.6876 42.3353 23.6876 42.7497ZM37.5548 29.781L35.1329 40.6404C35.019 41.1584 34.7743 41.6385 34.4221 42.0352C34.0699 42.4318 33.6221 42.7316 33.1212 42.906C32.7814 43.0212 32.4252 43.0805 32.0665 43.0818C31.3634 43.0779 30.6822 42.8371 30.1329 42.3982L24.7032 38.0622H13.297L7.86728 42.3982C7.318 42.8371 6.63677 43.0779 5.93369 43.0818C5.57493 43.0805 5.21876 43.0212 4.879 42.906C4.37811 42.7316 3.93024 42.4318 3.57809 42.0352C3.22593 41.6385 2.98122 41.1584 2.86728 40.6404L0.445405 29.781C0.345577 29.3138 0.353496 28.8301 0.468559 28.3664C0.583622 27.9028 0.802804 27.4715 1.10947 27.1052L6.89072 20.1521C7.06289 17.7613 7.59628 15.4104 8.47275 13.1794C10.7579 7.28098 14.8204 3.41379 17.047 1.63645C17.6019 1.19206 18.2926 0.951562 19.0035 0.955117C19.7145 0.958672 20.4027 1.20607 20.9532 1.65598C23.1602 3.43332 27.1642 7.30051 29.4298 13.1989C30.274 15.3846 30.8002 17.6802 30.9923 20.0154L36.8907 27.1052C37.1974 27.4715 37.4166 27.9028 37.5316 28.3664C37.6467 28.8301 37.6546 29.3138 37.5548 29.781ZM10.7384 36.1091C8.70712 32.281 7.46363 28.544 7.0079 24.8982L3.51181 29.0974L5.91415 39.9568L10.7384 36.1091ZM21.3438 17.7497C21.3438 17.2862 21.2064 16.833 20.9488 16.4476C20.6913 16.0622 20.3253 15.7618 19.897 15.5844C19.4687 15.407 18.9975 15.3606 18.5428 15.451C18.0882 15.5414 17.6706 15.7647 17.3428 16.0924C17.015 16.4202 16.7918 16.8378 16.7014 17.2925C16.6109 17.7471 16.6574 18.2184 16.8347 18.6466C17.0121 19.0749 17.3125 19.441 17.698 19.6985C18.0834 19.956 18.5365 20.0935 19.0001 20.0935C19.6217 20.0935 20.2178 19.8466 20.6574 19.407C21.0969 18.9675 21.3438 18.3713 21.3438 17.7497ZM34.4884 29.0974L30.9142 24.8005C30.4845 28.4724 29.2735 32.2419 27.2423 36.0896L32.086 39.9568L34.4884 29.0974Z" fill="#1E2229"/>
</svg>
