<svg width="36" height="36" viewBox="0 0 36 48" fill="none" xmlns="http://www.w3.org/2000/svg">
<path d="M28.9375 17.7504C28.9375 19.9137 28.296 22.0283 27.0942 23.827C25.8924 25.6256 24.1842 27.0275 22.1856 27.8554C20.187 28.6832 17.9879 28.8998 15.8662 28.4778C13.7445 28.0558 11.7957 27.0141 10.266 25.4844C8.73638 23.9548 7.69468 22.0059 7.27266 19.8842C6.85063 17.7626 7.06723 15.5634 7.89507 13.5648C8.7229 11.5663 10.1248 9.85807 11.9234 8.65624C13.7221 7.45441 15.8368 6.81294 18 6.81294C20.9008 6.81294 23.6828 7.96528 25.734 10.0165C27.7852 12.0676 28.9375 14.8496 28.9375 17.7504ZM35.1875 17.7504C35.1878 20.2822 34.6276 22.7826 33.547 25.0722C32.4664 27.3617 30.8922 29.3836 28.9375 30.9926V45.8754C28.9375 46.2898 28.7729 46.6873 28.4799 46.9803C28.1868 47.2733 27.7894 47.4379 27.375 47.4379C27.1326 47.4328 26.8936 47.3797 26.6719 47.2817L18 42.9262L9.32812 47.2817C9.08868 47.3999 8.82292 47.4548 8.55622 47.4412C8.28952 47.4275 8.03078 47.3457 7.80469 47.2036C7.57676 47.0652 7.38859 46.8701 7.25851 46.6373C7.12844 46.4046 7.06091 46.1421 7.0625 45.8754V30.9926C4.82799 29.1493 3.09563 26.771 2.02635 24.0789C0.957072 21.3867 0.585557 18.468 0.946321 15.5938C1.30709 12.7196 2.38842 9.98327 4.08989 7.6389C5.79135 5.29453 8.05773 3.41822 10.6785 2.18428C13.2993 0.950332 16.1894 0.398783 19.0804 0.580868C21.9714 0.762953 24.7695 1.67276 27.2147 3.22578C29.6599 4.7788 31.673 6.92464 33.0669 9.46396C34.4607 12.0033 35.1902 14.8537 35.1875 17.7504ZM32.0625 17.7504C32.0625 14.9691 31.2377 12.2503 29.6925 9.93773C28.1473 7.62516 25.9511 5.82274 23.3815 4.75838C20.8119 3.69402 17.9844 3.41554 15.2565 3.95814C12.5287 4.50075 10.023 5.84007 8.05631 7.80675C6.08963 9.77342 4.75031 12.2791 4.2077 15.007C3.6651 17.7348 3.94358 20.5623 5.00794 23.1319C6.0723 25.7015 7.87472 27.8978 10.1873 29.443C12.4999 30.9882 15.2187 31.8129 18 31.8129C21.728 31.8078 25.3019 30.3245 27.938 27.6884C30.5741 25.0523 32.0573 21.4785 32.0625 17.7504Z" fill="#1E2229"/>
</svg>
