<svg width="28" height="24" viewBox="0 0 28 24" fill="none" xmlns="http://www.w3.org/2000/svg">
<path d="M27.7123 4.71262L23.9373 8.47512C23.1873 17.2126 15.8123 24.0001 6.99984 24.0001C5.18734 24.0001 3.68735 23.7126 2.54984 23.1501C1.63734 22.6876 1.26234 22.2001 1.16234 22.0501C1.07961 21.9244 1.02629 21.7817 1.00637 21.6326C0.986456 21.4835 1.00045 21.3318 1.0473 21.1888C1.09416 21.0458 1.17268 20.9152 1.277 20.8068C1.38133 20.6984 1.50878 20.6149 1.64984 20.5626C1.67484 20.5501 4.62485 19.4251 6.53734 17.2626C5.35127 16.4181 4.30878 15.3883 3.44984 14.2126C1.73734 11.8876 -0.0751554 7.85012 1.01234 1.82512C1.04653 1.646 1.12846 1.47944 1.24947 1.34303C1.37048 1.20662 1.52608 1.10542 1.69984 1.05012C1.87416 0.993039 2.06082 0.985004 2.2394 1.02689C2.41797 1.06878 2.58159 1.15898 2.71234 1.28762C2.74984 1.33762 6.91234 5.43762 11.9998 6.76262V6.00012C12.0048 5.20726 12.1658 4.42313 12.4737 3.6925C12.7817 2.96188 13.2305 2.29906 13.7947 1.74191C14.3588 1.18475 15.0271 0.74417 15.7615 0.445312C16.4959 0.146455 17.282 -0.0048227 18.0748 0.000117191C19.1155 0.0149587 20.1345 0.299095 21.0326 0.824842C21.9308 1.35059 22.6774 2.10002 23.1998 3.00012H26.9998C27.1973 2.9995 27.3905 3.05733 27.5551 3.16633C27.7197 3.27533 27.8483 3.43062 27.9248 3.61262C27.9969 3.79733 28.0152 3.99866 27.9776 4.19333C27.94 4.38799 27.848 4.56803 27.7123 4.71262Z" fill="white"/>
</svg>
