<svg width="20" height="20" viewBox="0 0 26 26" fill="none" xmlns="http://www.w3.org/2000/svg">
<path d="M25.2501 12.88L13.8313 1.45035C13.6262 1.24693 13.3745 1.09675 13.0981 1.01287C12.8217 0.928989 12.529 0.913963 12.2454 0.969099L3.41884 2.74097C3.25147 2.7744 3.09775 2.85664 2.97706 2.97732C2.85638 3.09801 2.77414 3.25173 2.74072 3.4191L0.968841 12.2457C0.912672 12.5275 0.927228 12.8189 1.01121 13.0937C1.09519 13.3686 1.24598 13.6183 1.45009 13.8207L12.8798 25.2503C13.0415 25.4137 13.234 25.5434 13.4461 25.6319C13.6583 25.7204 13.8859 25.766 14.1157 25.766C14.3456 25.766 14.5732 25.7204 14.7853 25.6319C14.9974 25.5434 15.1899 25.4137 15.3517 25.2503L25.2501 15.3519C25.4135 15.1902 25.5431 14.9977 25.6316 14.7856C25.7201 14.5734 25.7657 14.3458 25.7657 14.116C25.7657 13.8861 25.7201 13.6585 25.6316 13.4464C25.5431 13.2342 25.4135 13.0417 25.2501 12.88ZM8.18759 9.50035C7.928 9.50035 7.67424 9.42337 7.45841 9.27915C7.24257 9.13493 7.07434 8.92995 6.975 8.69012C6.87566 8.45029 6.84967 8.18639 6.90031 7.93179C6.95095 7.67719 7.07596 7.44333 7.25951 7.25977C7.44307 7.07621 7.67693 6.95121 7.93153 6.90057C8.18613 6.84993 8.45004 6.87592 8.68986 6.97526C8.92969 7.0746 9.13468 7.24282 9.2789 7.45866C9.42311 7.6745 9.50009 7.92826 9.50009 8.18785C9.50009 8.53595 9.36181 8.86979 9.11567 9.11593C8.86953 9.36207 8.53569 9.50035 8.18759 9.50035Z" fill="#FFB300"/>
</svg>
